<svg width="59" height="59" viewBox="0 0 59 59" fill="none" xmlns="http://www.w3.org/2000/svg">
<g clip-path="url(#clip0_116:97)">
<path d="M32.1831 2.68182L32.1831 49.8437L41.0141 41.0127C42.0613 39.9653 43.7594 39.9653 44.8068 41.0127C45.3303 41.5364 45.5922 42.2227 45.5922 42.9091C45.5922 43.5955 45.3303 44.2818 44.8066 44.8053L31.3975 58.2144C30.3503 59.2617 28.6522 59.2617 27.6049 58.2144L14.1958 44.8053C13.1486 43.7582 13.1486 42.06 14.1958 41.0127C15.2429 39.9653 16.9411 39.9653 17.9884 41.0127L26.8194 49.8437L26.8195 2.68182C26.8195 1.20074 28.0202 6.38614e-07 29.5013 7.03354e-07C30.9823 7.68094e-07 32.1831 1.20074 32.1831 2.68182Z" fill="#484A54"/>
</g>
<defs>
<clipPath id="clip0_116:97">
<rect width="59" height="59" fill="white" transform="matrix(-4.37114e-08 1 1 4.37114e-08 0 0)"/>
</clipPath>
</defs>
</svg>
