<svg width="74" height="69" viewBox="0 0 74 69" fill="none" xmlns="http://www.w3.org/2000/svg">
<path d="M63.9113 0.289062H10.1151C7.63842 0.292262 5.26414 1.27844 3.51289 3.03132C1.76165 4.78421 0.77639 7.1607 0.773193 9.63965L0.773193 58.9519C0.77639 61.4309 1.76165 63.8074 3.51289 65.5603C5.26414 67.3132 7.63842 68.2993 10.1151 68.3025H63.9113C66.3879 68.2993 68.7622 67.3132 70.5135 65.5603C72.2647 63.8074 73.25 61.4309 73.2532 58.9519V9.63965C73.25 7.1607 72.2647 4.78421 70.5135 3.03132C68.7622 1.27844 66.3879 0.292262 63.9113 0.289062V0.289062ZM5.30319 58.9519V21.4004C5.30319 21.2123 5.37786 21.0319 5.51076 20.8989C5.64367 20.7658 5.82393 20.6911 6.01189 20.6911H68.0185C68.2065 20.6911 68.3867 20.7658 68.5196 20.8989C68.6525 21.0319 68.7272 21.2123 68.7272 21.4004V50.1656H61.6443C59.9174 50.1656 58.2613 50.8522 57.0402 52.0745C55.8192 53.2967 55.1332 54.9543 55.1332 56.6828V63.7683H10.1151C8.8405 63.763 7.61966 63.2539 6.71841 62.3518C5.81716 61.4497 5.30849 60.2277 5.30319 58.9519V58.9519ZM63.9113 63.7885H59.6632V56.6828C59.6642 56.1572 59.8733 55.6535 60.2446 55.2818C60.6159 54.9102 61.1192 54.7009 61.6443 54.6998H68.7232V58.9519C68.7179 60.2277 68.2092 61.4497 67.308 62.3518C66.4067 63.2539 65.1859 63.763 63.9113 63.7683V63.7885Z" fill="#3700B9"/>
<path d="M57.4522 29.7631C57.4517 29.4653 57.3925 29.1705 57.278 28.8957C57.1636 28.6208 56.9961 28.3712 56.7852 28.1612C56.5742 27.9512 56.324 27.7849 56.0487 27.6718C55.7735 27.5586 55.4787 27.501 55.1812 27.502H18.8446C18.5402 27.4891 18.2363 27.538 17.9513 27.6457C17.6662 27.7535 17.4059 27.9178 17.1859 28.1289C16.966 28.3399 16.791 28.5933 16.6714 28.8738C16.5519 29.1543 16.4902 29.4561 16.4902 29.7611C16.4902 30.066 16.5519 30.3678 16.6714 30.6483C16.791 30.9288 16.966 31.1822 17.1859 31.3933C17.4059 31.6043 17.6662 31.7686 17.9513 31.8764C18.2363 31.9841 18.5402 32.033 18.8446 32.0201H55.1812C55.4784 32.0212 55.7729 31.9636 56.0478 31.8508C56.3228 31.7379 56.5728 31.572 56.7837 31.3624C56.9946 31.1528 57.1622 30.9037 57.2769 30.6293C57.3916 30.3549 57.4512 30.0606 57.4522 29.7631Z" fill="#3700B9"/>
<path d="M50.5588 38.8399H23.4715C23.1671 38.827 22.8633 38.876 22.5782 38.9837C22.2932 39.0914 22.0328 39.2557 21.8129 39.4667C21.593 39.6777 21.4179 39.9312 21.2984 40.2117C21.1788 40.4922 21.1172 40.7939 21.1172 41.0989C21.1172 41.4039 21.1788 41.7057 21.2984 41.9862C21.4179 42.2667 21.593 42.5202 21.8129 42.7312C22.0328 42.9423 22.2932 43.1065 22.5782 43.2142C22.8633 43.322 23.1671 43.3709 23.4715 43.358H50.5588C50.8633 43.3709 51.1671 43.322 51.4522 43.2142C51.7372 43.1065 51.9975 42.9423 52.2175 42.7312C52.4374 42.5202 52.6124 42.2667 52.732 41.9862C52.8515 41.7057 52.9132 41.4039 52.9132 41.0989C52.9132 40.7939 52.8515 40.4922 52.732 40.2117C52.6124 39.9312 52.4374 39.6777 52.2175 39.4667C51.9975 39.2557 51.7372 39.0914 51.4522 38.9837C51.1671 38.876 50.8633 38.827 50.5588 38.8399V38.8399Z" fill="#3700B9"/>
</svg>
