<svg width="211" height="211" viewBox="0 0 211 211" fill="none" xmlns="http://www.w3.org/2000/svg">
<g clip-path="url(#clip0_116:217)">
<path d="M211 101.22C210.381 73.8221 198.932 47.7852 179.159 28.8097C159.386 9.83416 132.9 -0.533866 105.5 -0.0245504C78.1055 -0.533967 51.6248 9.82924 31.8528 28.7972C12.0807 47.7651 0.627696 73.7931 0 101.185V101.361C0.0729817 115.263 3.05622 128.995 8.75766 141.674C14.4591 154.352 22.7524 165.697 33.1036 174.976V200.484C33.0834 201.855 33.3359 203.215 33.8464 204.487C34.3569 205.759 35.1153 206.917 36.0774 207.894C37.0395 208.87 38.1861 209.645 39.4505 210.174C40.7149 210.703 42.0719 210.976 43.4426 210.975C45.3748 210.975 47.2678 210.431 48.9051 209.405L69.3956 196.616C80.9302 200.659 93.0662 202.72 105.289 202.711H105.5H107.528C134.573 202.685 160.535 192.084 179.869 173.172C199.203 154.261 210.376 128.539 211 101.502V101.22ZM170.547 165.001C161.932 173.301 151.759 179.813 140.615 184.163C129.471 188.512 117.577 190.613 105.617 190.344H105.5C94.1239 190.383 82.8316 188.398 72.1503 184.483C70.8559 184.001 69.468 183.823 68.0938 183.964C66.7197 184.104 65.3963 184.558 64.2261 185.292L45.4705 197.014V173.57C45.4704 172.274 45.192 170.993 44.654 169.814C44.1161 168.635 43.3312 167.585 42.3524 166.736C33.0016 158.604 25.4916 148.572 20.3231 137.309C15.1545 126.047 12.4462 113.811 12.3787 101.42C12.9385 77.286 23.0414 54.3582 40.474 37.6595C57.9066 20.9608 81.2474 11.8527 105.383 12.3307H105.617C129.733 11.8523 153.056 20.9444 170.485 37.618C187.915 54.2915 198.031 77.1893 198.621 101.302C198.371 113.246 195.761 125.023 190.943 135.954C186.125 146.886 179.193 156.757 170.547 165.001Z" fill="white"/>
</g>
<defs>
<clipPath id="clip0_116:217">
<rect width="211" height="211" fill="white"/>
</clipPath>
</defs>
</svg>
