<svg width="40" height="38" viewBox="0 0 40 38" fill="none" xmlns="http://www.w3.org/2000/svg">
<path d="M17.9072 0.0703057C16.1912 0.233203 14.5012 0.59954 12.8738 1.16147C10.7839 1.9492 8.83188 3.05596 7.08903 4.44145C5.94897 5.42168 4.9014 6.50224 3.95924 7.66982C1.90856 10.3567 0.590181 13.5188 0.130313 16.8534C-0.0575841 18.6251 -0.0422408 20.412 0.176051 22.1802C0.701352 25.5735 2.10424 28.7753 4.24892 31.4758C4.72112 32.125 5.29025 32.6997 5.93687 33.1803C6.03801 33.1629 6.13016 33.1121 6.19823 33.0362C6.32891 32.9006 6.32891 32.8382 6.23743 32.3324C6.10313 30.9768 6.10313 29.6116 6.23743 28.256C6.68948 25.4069 8.07425 22.7828 10.1796 20.7856C11.2743 19.6991 12.558 18.8162 13.9693 18.1792C14.7665 17.8241 14.797 17.695 14.2067 17.0579C13.4003 16.2037 12.8138 15.1702 12.497 14.0448C12.303 13.4329 12.2291 12.7901 12.2792 12.1508C12.2133 11.1976 12.3846 10.2429 12.778 9.37011C13.5525 7.57966 14.9945 6.1524 16.8051 5.38418C17.681 4.99618 18.6394 4.82481 19.5973 4.88487C20.4828 4.82821 21.3698 4.97098 22.1913 5.3024C23.1673 5.67798 24.0538 6.24966 24.7946 6.98135C25.5355 7.71304 26.1145 8.58874 26.495 9.55303C26.8304 10.3641 26.9749 11.2399 26.9176 12.1142C26.9475 12.6727 26.9036 13.2328 26.7869 13.7801C26.4689 14.9885 25.8608 16.1032 25.014 17.0299C24.6002 17.4604 24.5152 17.6584 24.6459 17.8413C24.8662 17.9954 25.1028 18.1253 25.3516 18.2287C27.876 19.4317 29.9737 21.3605 31.3694 23.7622C32.1169 25.0976 32.6427 26.5429 32.9267 28.0429C33.1016 29.4641 33.1118 30.9003 32.9572 32.3238C32.8657 32.8317 32.8657 32.892 32.9964 33.0276C33.0645 33.1035 33.1566 33.1543 33.2577 33.1717C33.9044 32.6911 34.4735 32.1164 34.9457 31.4672C37.6571 28.094 39.1576 23.9264 39.2116 19.6189C39.2656 15.3115 37.87 11.1083 35.2441 7.66982C34.2606 6.45242 33.1583 5.3336 31.9531 4.32953C28.0038 1.17005 22.9702 -0.356271 17.9072 0.0703057V0.0703057Z" fill="#3700B9"/>
<path d="M18.7176 7.61523C18.099 7.74488 17.5133 7.999 16.996 8.36213C16.188 8.9236 15.5878 9.73601 15.2886 10.6733C15.1302 11.1206 15.0618 11.5947 15.0872 12.0684C15.0507 12.9674 15.3134 13.8532 15.8342 14.5869C16.3925 15.4438 17.2331 16.0784 18.2102 16.3807C18.6528 16.5467 19.126 16.6153 19.5976 16.582C20.0762 16.6116 20.5558 16.543 21.0071 16.3807C21.6883 16.1575 22.3073 15.7772 22.8142 15.2704C23.3211 14.7636 23.7015 14.1446 23.9247 13.4636C24.083 13.0163 24.1514 12.5422 24.1261 12.0684C24.1514 11.5947 24.083 11.1206 23.9247 10.6733C23.6111 9.69704 22.9712 8.85831 22.1125 8.29775C21.1085 7.64786 19.8949 7.40386 18.7176 7.61523V7.61523Z" fill="#3700B9"/>
<path d="M18.4371 19.6412C16.405 19.8717 14.4849 20.6577 12.9058 21.9057C11.3267 23.1536 10.1552 24.8108 9.53098 26.6796C9.17912 27.6884 9.0197 28.7497 9.06036 29.8127C9.02074 30.4334 9.08787 31.0561 9.25907 31.656C9.56979 32.8011 10.1528 33.8617 10.9624 34.7546C11.7719 35.6476 12.7862 36.3486 13.9255 36.8029C16.1945 37.5436 18.5972 37.833 20.9868 37.6533C22.6904 37.5829 24.3631 37.1931 25.9105 36.506C27.264 35.827 28.3841 34.7875 29.1362 33.5126C29.8883 32.2376 30.2405 30.7815 30.1502 29.3192C30.0718 27.8989 29.6887 26.5093 29.0249 25.2374C28.2929 23.8218 27.2272 22.5891 25.9123 21.6369C24.5973 20.6847 23.0693 20.0392 21.4491 19.7515C20.4526 19.6061 19.4422 19.5691 18.4371 19.6412V19.6412Z" fill="#3700B9"/>
</svg>
