<svg width="256" height="256" viewBox="0 0 256 256" fill="none" xmlns="http://www.w3.org/2000/svg">
<g clip-path="url(#clip0_116:240)">
<path d="M138.328 256H117.352C113.162 255.4 108.919 255.046 104.796 254.159C53.4656 243.127 19.9835 212.542 4.34984 162.405C1.98811 154.847 1.01407 146.99 0 139.166V117.195C0.106744 116.628 0.260191 116.061 0.313563 115.487C2.24553 96.1681 8.5424 77.5406 18.7287 61.011C28.915 44.4813 42.7246 30.4815 59.1146 20.0687C75.5046 9.65583 94.0467 3.10214 113.341 0.902408C132.635 -1.29732 152.177 0.914418 170.491 7.37063C230.201 28.5216 265.694 88.8931 253.685 151.126C243.678 202.879 211.961 236.23 161.618 251.758C154.026 254.099 146.173 255.06 138.328 256ZM127.98 18.5431C67.5359 18.5031 18.2133 67.6354 18.1466 127.933C18.0732 188.498 67.2357 237.837 127.7 237.877C188.164 237.917 237.473 188.785 237.54 128.487C237.607 67.8621 188.457 18.5431 127.98 18.5098V18.5431Z" fill="#FF004E"/>
<path d="M126.258 63.6191C134.317 63.8993 142.11 65.24 149.161 69.5089C161.517 76.9994 165.667 90.5198 159.656 103.673C156.794 109.93 152.417 115.013 147.334 119.515C145.987 120.754 144.578 121.923 143.11 123.017C136.732 127.626 133.737 133.869 134.024 141.693C134.151 145.028 133.777 148.197 130.201 149.584C125.871 151.265 121.428 151.725 117.285 149.01C115.517 147.85 114.923 145.829 114.683 143.801C113.195 131.368 116.524 120.762 126.558 112.725C129.414 110.437 132.403 108.309 135.031 105.741C137.44 103.38 139.408 100.758 140.195 97.3767C141.469 91.9005 139.168 87.1114 133.93 85.0303C127.092 82.3155 115.917 82.1821 110.353 91.5737C107.318 96.6697 103.635 97.5768 98.6914 95.4691C94.1681 93.5347 92.0199 89.1324 93.114 83.9697C94.7552 76.4592 99.7855 71.6967 106.244 68.2149C112.488 64.8598 119.273 63.7859 126.258 63.6191Z" fill="#FF004E"/>
<path d="M124.058 161.931C127.544 161.927 130.893 163.294 133.379 165.738C135.866 168.182 137.291 171.505 137.347 174.991C137.307 178.521 135.877 181.893 133.367 184.377C130.857 186.86 127.469 188.255 123.937 188.258C120.492 188.195 117.209 186.783 114.794 184.326C112.379 181.869 111.024 178.563 111.021 175.118C110.995 173.391 111.313 171.677 111.956 170.075C112.6 168.474 113.557 167.016 114.771 165.788C115.985 164.56 117.431 163.587 119.026 162.925C120.62 162.262 122.331 161.924 124.058 161.931Z" fill="#FF004E"/>
</g>
<defs>
<clipPath id="clip0_116:240">
<rect width="256" height="256" fill="white"/>
</clipPath>
</defs>
</svg>
