<svg width="34" height="34" viewBox="0 0 34 34" fill="none" xmlns="http://www.w3.org/2000/svg">
<path d="M1.54545 15.4538L28.7235 15.4538L23.6344 10.3647C23.0309 9.76128 23.0309 8.7827 23.6344 8.17915C23.9362 7.87748 24.3317 7.72654 24.7273 7.72654C25.1228 7.72654 25.5183 7.87748 25.82 8.17925L33.5473 15.9065C34.1508 16.51 34.1508 17.4886 33.5473 18.0921L25.82 25.8194C25.2166 26.4228 24.238 26.4228 23.6344 25.8194C23.0309 25.2159 23.0309 24.2374 23.6344 23.6338L28.7235 18.5447L1.54545 18.5447C0.691951 18.5447 0 17.8528 0 16.9993C0 16.1458 0.691951 15.4538 1.54545 15.4538Z" fill="#484A54"/>
</svg>
