<svg width="46" height="101" viewBox="0 0 46 101" fill="none" xmlns="http://www.w3.org/2000/svg">
<path d="M24.5951 66.8038C27.7876 66.1604 30.2877 64.4128 32.5014 62.0955C36.1956 58.2459 39.9961 54.5027 43.7339 50.694C45.6096 48.7856 45.5169 46.032 43.5648 44.4017C41.8636 42.9758 39.4754 43.1394 37.7769 44.8488C33.6874 48.9383 29.6279 53.0414 25.5493 57.1336C24.1098 58.5758 22.4931 58.9002 20.8192 58.1232C20.184 57.8288 19.7287 57.3299 19.2406 56.85C15.262 52.8514 11.2843 48.8528 7.30756 44.8542C5.81082 43.3548 3.84787 43.0249 2.18755 43.9437C-0.296127 45.3068 -0.756875 48.5239 1.27968 50.6231C4.04689 53.4776 6.85499 56.2911 9.64947 59.1211C10.6037 60.0889 11.6015 61.0158 12.5148 62.0218C14.6959 64.421 17.2668 66.1659 20.5002 66.8065L24.5951 66.8038Z" fill="white" fill-opacity="0.7"/>
<path d="M24.5951 100.371C27.7876 99.7278 30.2877 97.9802 32.5014 95.6628C36.1956 91.8133 39.9961 88.0701 43.7339 84.2614C45.6096 82.353 45.5169 79.5994 43.5648 77.9691C41.8636 76.5432 39.4754 76.7068 37.7769 78.4162C33.6874 82.5056 29.6279 86.6087 25.5493 90.7009C24.1098 92.1432 22.4931 92.4676 20.8192 91.6906C20.184 91.3962 19.7287 90.8972 19.2406 90.4174C15.262 86.4188 11.2843 82.4202 7.30756 78.4216C5.81082 76.9222 3.84787 76.5923 2.18755 77.511C-0.296127 78.8742 -0.756875 82.0912 1.27968 84.1905C4.04689 87.045 6.85499 89.8585 9.64947 92.6884C10.6037 93.6563 11.6015 94.5832 12.5148 95.5892C14.6959 97.9884 17.2668 99.7332 20.5002 100.374L24.5951 100.371Z" fill="white" fill-opacity="0.3"/>
<path d="M22.7659 0.00110147C20.8641 -0.0224567 18.9766 0.332094 17.213 1.04416C15.4494 1.75623 13.8448 2.81162 12.4926 4.14903C11.1403 5.48644 10.0672 7.07922 9.33568 8.83484C8.60416 10.5905 8.22876 12.4739 8.23129 14.3759C8.23381 16.2778 8.61422 18.1603 9.35041 19.9139C10.0866 21.6676 11.1639 23.2575 12.5197 24.5913C13.8756 25.9251 15.4829 26.9763 17.2484 27.6836C19.0139 28.391 20.9023 28.7405 22.804 28.7119C30.8031 28.7119 37.1254 22.3323 37.1145 14.2843C37.1181 12.402 36.749 10.5377 36.0284 8.79889C35.3078 7.06006 34.25 5.48114 32.916 4.15324C31.582 2.82535 29.9983 1.77477 28.2562 1.06212C26.5141 0.349466 24.6481 -0.0111407 22.7659 0.00110147V0.00110147ZM16.7271 14.4042C16.6698 11.2144 19.3689 8.44722 22.6596 8.32454C25.8575 8.20731 28.7256 11.0045 28.7801 14.3061C28.8428 17.4959 26.1411 20.2658 22.8504 20.3885C19.6633 20.5057 16.7843 17.7003 16.7271 14.4042V14.4042Z" fill="white"/>
</svg>
