<svg width="38" height="38" viewBox="0 0 38 38" fill="none" xmlns="http://www.w3.org/2000/svg">
<path d="M3.60042 0H14.3996C15.3545 0 16.2703 0.379329 16.9455 1.05454C17.6207 1.72975 18 2.64553 18 3.60042V14.3996C18 15.3545 17.6207 16.2703 16.9455 16.9455C16.2703 17.6207 15.3545 18 14.3996 18H3.60042C2.64553 18 1.72975 17.6207 1.05454 16.9455C0.379329 16.2703 0 15.3545 0 14.3996L0 3.60042C0 2.64553 0.379329 1.72975 1.05454 1.05454C1.72975 0.379329 2.64553 0 3.60042 0Z" fill="#3700B9"/>
<path d="M3.60042 20H14.3996C15.3545 20 16.2703 20.3793 16.9455 21.0545C17.6207 21.7297 18 22.6455 18 23.6004V34.3996C18 35.3545 17.6207 36.2703 16.9455 36.9455C16.2703 37.6207 15.3545 38 14.3996 38H3.60042C2.64553 38 1.72975 37.6207 1.05454 36.9455C0.379329 36.2703 0 35.3545 0 34.3996L0 23.6004C0 22.6455 0.379329 21.7297 1.05454 21.0545C1.72975 20.3793 2.64553 20 3.60042 20Z" fill="#3700B9"/>
<path d="M23.6004 0H34.3996C35.3545 0 36.2703 0.379329 36.9455 1.05454C37.6207 1.72975 38 2.64553 38 3.60042V14.3996C38 15.3545 37.6207 16.2703 36.9455 16.9455C36.2703 17.6207 35.3545 18 34.3996 18H23.6004C22.6455 18 21.7297 17.6207 21.0545 16.9455C20.3793 16.2703 20 15.3545 20 14.3996V3.60042C20 2.64553 20.3793 1.72975 21.0545 1.05454C21.7297 0.379329 22.6455 0 23.6004 0Z" fill="#3700B9"/>
<path d="M27.2008 20H30.7992C32.7089 20 34.5405 20.7587 35.8909 22.1091C37.2413 23.4595 38 25.2911 38 27.2008V30.7992C38 32.7089 37.2413 34.5405 35.8909 35.8909C34.5405 37.2413 32.7089 38 30.7992 38H27.2008C25.2911 38 23.4595 37.2413 22.1091 35.8909C20.7587 34.5405 20 32.7089 20 30.7992V27.2008C20 25.2911 20.7587 23.4595 22.1091 22.1091C23.4595 20.7587 25.2911 20 27.2008 20Z" fill="#3700B9"/>
</svg>
