<svg width="165" height="165" viewBox="0 0 165 165" fill="none" xmlns="http://www.w3.org/2000/svg">
<path fill-rule="evenodd" clip-rule="evenodd" d="M82.5 165C128.063 165 165 128.063 165 82.5C165 36.9365 128.063 0 82.5 0C36.9365 0 0 36.9365 0 82.5C0 128.063 36.9365 165 82.5 165ZM82.5 150.538C120.076 150.538 150.538 120.076 150.538 82.5C150.538 44.9237 120.076 14.4622 82.5 14.4622C44.9237 14.4622 14.4622 44.9237 14.4622 82.5C14.4622 120.076 44.9237 150.538 82.5 150.538Z" fill="#4F19EB"/>
<rect x="71.6533" y="33.5259" width="21.6932" height="67.0518" rx="10.8466" fill="#4F19EB"/>
<circle cx="82.1712" cy="118.984" r="10.5179" fill="#4F19EB"/>
</svg>
